<?xml version="1.0" encoding="iso-8859-1"?>
<!-- Uploaded to: SVG Repo, www.svgrepo.com, Generator: SVG Repo Mixer Tools -->
<!DOCTYPE svg PUBLIC "-//W3C//DTD SVG 1.1//EN" "http://www.w3.org/Graphics/SVG/1.1/DTD/svg11.dtd">
<svg fill="#000000" height="800px" width="800px" version="1.1" id="Capa_1" xmlns="http://www.w3.org/2000/svg" xmlns:xlink="http://www.w3.org/1999/xlink" 
	 viewBox="0 0 443.693 443.693" xml:space="preserve">
<path d="M326.85,96.927c0-25.505-20.749-46.256-46.254-46.256c-22.07,0-40.568,15.543-45.152,36.255h-59.972L135.84,5.621
	c-2.42-4.964-8.403-7.028-13.371-4.607c-4.964,2.42-7.027,8.406-4.607,13.371l35.36,72.542h-25.198c-3.77,0-7.219,2.12-8.921,5.482
	c-1.703,3.363-1.371,7.397,0.859,10.436c16.631,22.655,15.013,42.409,5.834,73.151c-8.842,29.616-14.489,54.499-0.451,82.368
	c12.495,27.684,38.644,46.531,68.355,50.027c0.092,38.064,0.092,76.754,0.001,115.303h-38.942c-5.522,0-10,4.479-10,10
	c0,5.523,4.478,10,10,10h48.89c0.011,0,0.02,0,0.029,0h49.011c5.522,0,10-4.477,10-10c0-5.521-4.478-10-10-10h-38.987
	c0.091-38.547,0.091-77.234-0.001-115.297c29.721-3.48,55.886-22.326,68.39-50.01c14.054-27.877,8.405-52.767-0.439-82.392
	c-3.758-12.579-6.245-23.317-6.737-33.169c1.873,0.229,3.767,0.356,5.683,0.356C306.101,143.181,326.85,122.432,326.85,96.927z
	 M280.597,70.671c14.477,0,26.254,11.778,26.254,26.256c0,14.477-11.777,26.254-26.254,26.254c-1.172,0-2.327-0.085-3.469-0.234
	c1.988-6.69,5.336-13.266,10.355-20.104c2.23-3.039,2.563-7.073,0.859-10.436c-1.703-3.362-5.151-5.481-8.921-5.481h-23.096
	C260.267,77.396,269.66,70.671,280.597,70.671z M244.323,106.926c0.007,0,0.013,0.001,0.02,0.001c0.007,0,0.013-0.001,0.02-0.001
	h17.498c-11.519,24.881-7.122,48.179-0.307,71.62c-4.779-4.189-11.354-9.145-22.787-9.145c-9.247,0-15.313,3.245-19.825,6.702
	l-33.72-69.177H244.323z M162.971,106.926l37.955,77.863c-3.035-0.6-4.918-2.272-7.994-5.022
	c-4.894-4.374-11.596-10.366-24.163-10.366c-11.529,0-18.117,5.039-22.906,9.25c6.832-23.48,11.259-46.81-0.276-71.726H162.971z
	 M264.146,249.55c-0.073,0.145-0.143,0.289-0.208,0.436c-10.621,23.691-34.257,39-60.216,39c-25.967,0-49.605-15.316-60.225-39.02
	c-0.065-0.146-0.135-0.291-0.207-0.434c-7.546-14.883-7.7-28.742-4.395-44.86c9.346-1.355,14.857-6.258,19.037-9.994
	c3.931-3.513,5.903-5.277,10.836-5.277c4.932,0,6.904,1.764,10.835,5.277c4.894,4.375,11.596,10.366,24.164,10.366
	c7.433,0,12.804-2.1,16.973-4.717c0.014-0.008,0.026-0.017,0.04-0.025c2.862-1.802,5.162-3.845,7.153-5.624
	c3.93-3.513,5.902-5.276,10.833-5.276c4.934,0,6.907,1.764,10.838,5.277c4.166,3.723,9.656,8.604,18.943,9.979
	C271.858,220.789,271.704,234.658,264.146,249.55z"/>
</svg>